<svg xmlns="http://www.w3.org/2000/svg" viewBox="0 0 3090.02 495.55"><defs><style>.cls-1{fill:#2aace2;}.cls-2{fill:#084d82;}.cls-3{fill:#61c8f2;}.cls-4{fill:#123c63;}</style></defs><g id="Layer_3" data-name="Layer 3"><polygon class="cls-1" points="287 134.6 419.31 364.44 574.01 364.44 361.46 0 287 134.6"/><polygon class="cls-2" points="154.7 364.45 419.31 364.44 502.36 495.55 77.35 495.53 154.7 364.45"/><polygon class="cls-3" points="287 134.6 154.7 364.44 0 364.44 212.46 0.01 287 134.6"/><path class="cls-4" d="M973.37,364.41l-22.68-37.24H787.53l-22.68,37.24H736L856.6,166.88h25l120.57,197.53ZM869.11,193.16l-66,108.33h131.9Z"/><path class="cls-4" d="M1056.12,214.29q-16.21,19.2-16.22,51.36T1056.12,317q16.2,19.19,52.65,19.19h124.39v28.21h-124.6q-47.67,0-70.56-27.37t-22.89-71.39q0-44,22.89-71.39t70.56-27.38h124.6V195.1H1108.77Q1072.32,195.1,1056.12,214.29Z"/><path class="cls-4" d="M1307,214.29q-16.21,19.2-16.21,51.36T1307,317q16.21,19.19,52.66,19.19h124.39v28.21h-124.6q-47.68,0-70.57-27.37T1266,265.65q0-44,22.88-71.39t70.57-27.38h124.6V195.1H1359.67Q1323.22,195.1,1307,214.29Z"/><path class="cls-4" d="M1545.93,273.27q0,31.32,14.94,48.53T1612.05,339h48.1q36.24,0,51.18-17.22t14.94-48.53V166.88h23.31V273.27q0,94-89.22,94h-48.52q-89.22,0-89.22-94V166.88h23.31Z"/><path class="cls-4" d="M1776.49,209.21V166.88h240.3v42.33H1914.23v155.2h-35.18V209.21Z"/><path class="cls-4" d="M2046.88,364.41V166.88h213.39v42.33H2081.84v37.25h156.82v38.38H2081.84v37.25h178.43v42.32Z"/><path class="cls-4" d="M2301,364.41V166.88H2459q31.78,0,47.25,18.06t15.47,46.85q0,27.37-13.67,45T2466,296.47l81.61,67.94H2493.3l-80.67-67.16h-76.71v67.16Zm156.82-155.2H2335.92v47.41h121.85q15.46,0,21.5-6.35t6-17.64Q2485.31,209.22,2457.77,209.21Z"/><path class="cls-4" d="M2572.4,364.41V166.88h158.09q31.78,0,47.25,18.06t15.47,46.85q0,27.37-13.67,45t-42.09,19.68l81.61,67.94h-54.31l-80.67-67.16h-76.71v67.16Zm156.82-155.2H2607.37v47.41h121.85q15.47,0,21.5-6.35t6-17.64Q2756.76,209.22,2729.22,209.21Z"/><path class="cls-4" d="M3047.92,364.41l-19.15-32.73H2882.42l-19.15,32.73h-43.15L2935.9,166.88h38.28L3090,364.41Zm-92.34-157.83-50.89,87h101.79Z"/></g></svg>